<svg xml:space="preserve" style="enable-background:new 0 0 1080 1080;" viewBox="0 0 1080 1080" y="0px" x="0px" xmlns:xlink="http://www.w3.org/1999/xlink" xmlns="http://www.w3.org/2000/svg" id="Layer_1" version="1.1">
<style type="text/css">
	.st0{fill:#450073;}
	.st1{fill:#FFFFFF;}
</style>
<g>
	<circle r="540" cy="540" cx="540" class="st0"></circle>
	<g>
		<path d="M201,194.8l25.9-22.3c18.7-16.1,33.9-14.6,45.9-0.7l0.3,0.4c11.7,13.6,9.2,28.9-7.6,43.4l-6.3,5.4l18.2,21.2
			l-20.6,17.7L201,194.8z M251.6,203.4c5.5-4.7,6.2-9.6,2-14.4l-0.3-0.4c-4.3-5-8.8-4.6-14.2,0l-4.4,3.8l12.6,14.6L251.6,203.4z" class="st1"></path>
		<path d="M272.8,136.3l30.5-17.2c20.6-11.6,35.9-9.4,44.9,6.6l0.2,0.4c5.8,10.3,3.9,19.1-1.6,26.7l34.2,20.9l-24.9,14
			L327.9,170l-3.8,2.1l14.4,25.6L315,211L272.8,136.3z M321.1,153.7c6.6-3.7,8.2-8.2,5.1-13.6l-0.2-0.4c-3.1-5.4-7.5-5.7-13.9-2.1
			l-5.6,3.2l9.1,16.1L321.1,153.7z" class="st1"></path>
		<path d="M359.5,91.1l57.8-19.3l6.6,19.8l-32.1,10.7l3.8,11.5l25.5-8.5l6,18.1l-25.5,8.5l4.1,12.2l33.9-11.3l6.6,19.8
			l-59.7,19.9L359.5,91.1z" class="st1"></path>
		<path d="M442.6,65.8l40.2-5.3c20.9-2.8,30.3,5.8,32,18.4l0.1,0.5c1.3,9.9-3.1,16.8-12.3,20.3
			c10.2,0.5,18.1,5.7,19.7,17.6l0.1,0.5c2,15.1-6.5,25-28.4,27.9l-40,5.3L442.6,65.8z M481.5,94.5c6.7-0.9,9-3.5,8.3-8.7l-0.1-0.5
			c-0.7-5.1-3.7-7.2-10.4-6.4l-8.1,1.1l2.1,15.6L481.5,94.5z M486.4,128.5c6.9-0.9,9.7-4.6,8.9-10.3l-0.1-0.5
			c-0.7-5.6-4.2-8.3-11.9-7.3l-8,1.1l2.4,18.1L486.4,128.5z" class="st1"></path>
		<path d="M535,57l27.5,0.5l-1.5,85.8l-27.5-0.5L535,57z" class="st1"></path>
		<path d="M577.3,99.8l0.2-0.9c5-26.1,28-39.3,53.2-34.5c25.9,4.9,42.3,24.3,37.2,50.9l-0.2,0.9
			c-5,26.3-26.4,40.4-54.1,35.2C586.1,146.2,572.4,125.4,577.3,99.8z M639.8,111.5l0.2-0.9c2.7-14.3-2.6-23.3-13.3-25.4
			c-10.4-2-18.5,4.4-21.3,18.8l-0.2,0.9c-2.7,14.4,2.5,23.6,13.1,25.6C628.9,132.5,637.1,125.6,639.8,111.5z" class="st1"></path>
		<path d="M703.1,107.5l-20-8.2l8-19.3l65.4,26.9l-8,19.3l-20.1-8.3l-24.7,60l-25.3-10.4L703.1,107.5z" class="st1"></path>
		<path d="M773.6,117.2l23.7,14L753.6,205l-23.7-14L773.6,117.2z" class="st1"></path>
		<path d="M789,175.5l0.6-0.7c17-20.4,42.7-21.4,62.2-5.1c17.8,14.9,23,33,9.6,52.1l-21.5-18c4.4-6.6,4.1-12.7-1.7-17.6
			c-7.6-6.3-17.1-4.3-26.4,6.9l-0.6,0.7c-9.2,11-9.8,20.7-1.7,27.5c5.9,4.9,12.7,5.4,18.9-0.6l20.8,17.4
			c-15.6,16.4-35.9,14.9-53.3,0.3C772,218.6,772.1,195.6,789,175.5z" class="st1"></path>
	</g>
	<g>
		<path d="M390.8,907.1l56.4,18.5l-6.5,20l-30.6-10l-5,15.2l24.6,8.1l-6.2,19l-24.6-8.1l-9,27.4l-25.9-8.5L390.8,907.1z" class="st1"></path>
		<path d="M449.3,925l27,5.3l-16.7,84.2l-27-5.3L449.3,925z" class="st1"></path>
		<path d="M483.6,932.6l40.5,2.3c21.1,1.2,28.7,11.4,28,24.1l0,0.5c-0.6,9.9-6.2,15.9-15.9,17.6c10,2.4,16.7,9,16,21
			l0,0.5c-0.9,15.2-11.1,23.3-33.1,22l-40.3-2.3L483.6,932.6z M514.9,1002.5c6.9,0.4,10.4-2.7,10.7-8.4l0-0.5
			c0.3-5.6-2.6-8.9-10.3-9.4l-8-0.5l-1,18.2L514.9,1002.5z M516.5,968c6.7,0.4,9.5-1.7,9.8-7l0-0.5c0.3-5.2-2.3-7.8-9-8.2l-8.1-0.5
			l-0.9,15.7L516.5,968z" class="st1"></path>
		<path d="M560,935.8l60.5-7.5l2.6,20.7l-33.6,4.2l1.5,12l26.7-3.3l2.4,18.9l-26.7,3.3l1.6,12.7l35.5-4.4l2.6,20.7
			l-62.4,7.7L560,935.8z" class="st1"></path>
		<path d="M628,927l33.4-10.7c22.5-7.2,37.1-2,42.7,15.5l0.1,0.5c3.6,11.3,0,19.5-7,25.8l29.4,27.4l-27.2,8.7L675.2,971
			l-4.1,1.3l9,28l-25.8,8.3L628,927z M671.8,953.7c7.2-2.3,9.7-6.4,7.8-12.3l-0.1-0.5c-1.9-5.9-6.2-7.1-13.2-4.8l-6.2,2l5.7,17.6
			L671.8,953.7z" class="st1"></path>
	</g>
	<g>
		<path d="M285.8,563.6h72.5c1.9,17.8,14.6,29.9,47.4,29.9c28.3,0,42-8.9,42-24.8c0-14.9-13.7-21.9-41-21.9h-25.4V501
			h24.2c27,0,40.4-7.6,40.4-21.9c0-12.7-12.1-21-37.5-21c-24.8,0-39.4,10.2-43.2,27.3h-71.2c3.8-45.8,43.9-76.6,118.3-76.6
			c68.4,0,110,22.9,110,62c0,25.4-17.2,42.3-46.7,49.6c34.3,5.4,54.4,23.5,54.4,50.2c0,43.9-42.6,72.8-120.2,72.8
			C325.9,643.4,288.7,612.3,285.8,563.6z" class="st1"></path>
		<path d="M549.4,635.5h73.1c2.9,12.1,14,19.7,42.6,19.7c33.1,0,45.8-14,45.8-35v-21c-11.1,16.5-35.6,28.9-69.9,28.9
			c-51.5,0-93.5-25.1-93.5-77.6V548c0-50.6,41.3-79.8,93.5-79.8c35.6,0,57.2,11.1,69.9,28.6V473h74.4v146.9
			c0,52.8-42.9,79.2-119.5,79.2C588.8,699.1,554.1,675.2,549.4,635.5z M712.8,550.9v-2.5c0-20.3-17.8-33.1-45.1-33.1
			c-28.3,0-44.5,12.4-44.5,33.4v2.5c0,20,17.5,33.4,44.8,33.4C694.7,584.6,712.8,571.2,712.8,550.9z" class="st1"></path>
	</g>
</g>
</svg>
