<svg xml:space="preserve" style="enable-background:new 0 0 1080 1080;" viewBox="0 0 1080 1080" y="0px" x="0px" xmlns:xlink="http://www.w3.org/1999/xlink" xmlns="http://www.w3.org/2000/svg" id="Layer_1" version="1.1">
<style type="text/css">
	.st0{fill:#450073;}
	.st1{fill:#FFFFFF;}
</style>
<circle r="540" cy="540" cx="540" class="st0"></circle>
<g>
	<path d="M323.6,107.1l31.5-13.2c22.8-9.6,36.8-3.5,43.9,13.4l0.2,0.4c6.9,16.5-0.1,30.4-20.6,39L371,150l10.8,25.8
		l-25,10.5L323.6,107.1z M369.1,131c6.6-2.8,8.8-7.2,6.3-13.1l-0.2-0.4c-2.6-6.1-7-7.1-13.5-4.3l-5.3,2.2l7.5,17.8L369.1,131z" class="st1"></path>
	<path d="M409,74.4l26.6-5.9l14,63.3l30.5-6.7l4.5,20.5l-57.1,12.6L409,74.4z" class="st1"></path>
	<path d="M511.3,57.7l35.1-0.8l28.8,85.2l-28.8,0.7l-4.3-14.2l-27.1,0.6l-3.5,14.4l-25.3,0.6L511.3,57.7z M519.8,110.6
		l16.9-0.4l-9.1-30.9L519.8,110.6z" class="st1"></path>
	<path d="M596.7,58.9l29.9,6l15,49.3l8.9-44.5l23.4,4.7L657,158.5l-25.5-5.1l-18-56l-10.1,50.4l-23.5-4.7L596.7,58.9z" class="st1"></path>
	<path d="M708.3,109.5l-19.9-8.5l8.2-19.2l65,27.7l-8.2,19.2l-20-8.5L708,179.9l-25.2-10.7L708.3,109.5z" class="st1"></path>
</g>
<g>
	<path d="M305.8,859.9l29.1,17.9c21,13,24.2,27.9,14.6,43.5l-0.3,0.4c-9.4,15.2-24.8,17.6-43.7,5.9l-7-4.3l-14.7,23.8
		L260.8,933L305.8,859.9z M312.9,910.8c6.1,3.8,11,3,14.3-2.4l0.3-0.4c3.5-5.6,1.7-9.8-4.4-13.5l-4.9-3l-10.1,16.5L312.9,910.8z" class="st1"></path>
	<path d="M369.3,898.2l32.8,12.2c22.1,8.3,30.3,21.4,23.9,38.6l-0.2,0.4c-4.2,11.1-12.1,15.3-21.4,15.9l6.1,39.7
		l-26.8-10l-4.7-33.1l-4-1.5l-10.3,27.5l-25.4-9.5L369.3,898.2z M387.1,946.4c7.1,2.6,11.5,1,13.7-4.9l0.2-0.5
		c2.2-5.8-0.5-9.4-7.3-12l-6.1-2.3l-6.5,17.3L387.1,946.4z" class="st1"></path>
	<path d="M433.8,968.2l0.1-1c3.6-26.3,26-40.6,51.4-37.1c26.2,3.6,43.5,22.1,39.7,49l-0.1,1
		c-3.7,26.5-24.3,41.7-52.3,37.8C444.8,1014,430.2,994,433.8,968.2z M496.8,976.8l0.1-1c2-14.4-3.8-23.2-14.5-24.7
		c-10.5-1.5-18.3,5.3-20.3,19.8l-0.1,1c-2,14.5,3.7,23.4,14.4,24.9C486.9,998.3,494.8,990.9,496.8,976.8z" class="st1"></path>
	<path d="M551.2,956.2l-21.6,1.3l-1.2-20.8l70.6-4.2l1.2,20.8l-21.7,1.3l3.8,64.8L555,1021L551.2,956.2z" class="st1"></path>
	<path d="M602.4,931.4l59.3-14l4.8,20.3l-32.9,7.8l2.8,11.8l26.2-6.2l4.4,18.6l-26.2,6.2l2.9,12.5l34.8-8.2l4.8,20.3
		l-61.2,14.4L602.4,931.4z" class="st1"></path>
	<path d="M672.4,912.7l25.6-10.1l31.6,79.8L704,992.5L672.4,912.7z" class="st1"></path>
	<path d="M711.5,898.3l26-15.8l44.4,26.1l-23.6-38.7l20.4-12.4l44.6,73.3l-22.2,13.5l-51.2-29l26.7,43.9l-20.5,12.5
		L711.5,898.3z" class="st1"></path>
</g>
<g>
	<path d="M261.3,481.6L203.5,522v-61.7l69-48.3h69.9v227.3h-81.1V481.6z" class="st1"></path>
	<path d="M377.7,566.8h73.8c3.2,14.3,13,24.2,42.3,24.2c27.7,0,39.7-12.7,39.7-29.3c0-19.4-15.6-29.6-44.8-29.6
		c-26.1,0-43.9,6.4-55,15.9h-46.7l6.4-136.1H598v50.6H452.1l-1.9,47.4c11.8-12.7,35-24.5,72.5-24.5c55.6,0,92.5,26.4,92.5,77.3
		c0,48.6-45.1,80.8-120.5,80.8C415.8,643.4,379.9,609.7,377.7,566.8z" class="st1"></path>
	<path d="M634,635.5h73.1c2.9,12.1,14,19.7,42.6,19.7c33.1,0,45.8-14,45.8-35v-21c-11.1,16.5-35.6,28.9-69.9,28.9
		c-51.5,0-93.5-25.1-93.5-77.6V548c0-50.6,41.3-79.8,93.5-79.8c35.6,0,57.2,11.1,69.9,28.6V473h74.4v146.9
		c0,52.8-42.9,79.2-119.5,79.2C673.4,699.1,638.7,675.2,634,635.5z M797.4,550.9v-2.5c0-20.3-17.8-33.1-45.1-33.1
		c-28.3,0-44.5,12.4-44.5,33.4v2.5c0,20,17.5,33.4,44.8,33.4C779.3,584.6,797.4,571.2,797.4,550.9z" class="st1"></path>
</g>
</svg>
