<?xml version="1.0" encoding="UTF-8"?>
<svg id="Layer_1" data-name="Layer 1" xmlns="http://www.w3.org/2000/svg" version="1.1" viewBox="0 0 325.37 310.9">
  <defs>
    <style>
      .cls-1 {
        fill: #231f20;
        stroke-width: 0px;
      }
    </style>
  </defs>
  <path class="cls-1" d="M169.98,19.73l29.33-14.34c8.05-3.93,17.76-.78,21.96,7.13l15.3,28.84c2.4,4.52,6.75,7.69,11.8,8.57l32.15,5.64c8.82,1.55,14.82,9.81,13.57,18.68l-4.57,32.32c-.72,5.07.95,10.19,4.51,13.87l22.7,23.46c6.23,6.44,6.23,16.65,0,23.09l-22.7,23.46c-3.56,3.68-5.22,8.8-4.51,13.87l4.57,32.32c1.25,8.87-4.75,17.13-13.57,18.68l-32.15,5.64c-5.04.88-9.4,4.05-11.8,8.57l-15.3,28.84c-4.2,7.91-13.91,11.07-21.96,7.13l-29.33-14.34c-4.6-2.25-9.98-2.25-14.58,0l-29.33,14.34c-8.05,3.93-17.76.78-21.96-7.13l-15.3-28.84c-2.4-4.52-6.75-7.69-11.8-8.57l-32.15-5.64c-8.82-1.55-14.82-9.81-13.57-18.68l4.57-32.32c.72-5.07-.95-10.19-4.51-13.87l-22.7-23.46c-6.23-6.44-6.23-16.65,0-23.09l22.7-23.46c3.56-3.68,5.22-8.8,4.51-13.87l-4.57-32.32c-1.25-8.87,4.75-17.13,13.57-18.68l32.15-5.64c5.04-.88,9.4-4.05,11.8-8.57l15.3-28.84c4.2-7.91,13.91-11.07,21.96-7.13l29.33,14.34c4.6,2.25,9.98,2.25,14.58,0Z"/>
</svg>