<svg xml:space="preserve" style="enable-background:new 0 0 1080 1080;" viewBox="0 0 1080 1080" y="0px" x="0px" xmlns:xlink="http://www.w3.org/1999/xlink" xmlns="http://www.w3.org/2000/svg" id="Layer_1" version="1.1">
<style type="text/css">
	.st0{fill:#450073;}
	.st1{fill:#FFFFFF;}
</style>
<circle r="540" cy="540" cx="540" class="st0"></circle>
<g>
	<path d="M330.2,104.7l32.2-14.1l59.1,67.8l-26.4,11.6l-9.4-11.5l-24.8,10.9l2.2,14.6L340,194.1L330.2,104.7z
		 M358.2,150.3l15.5-6.8l-20.2-25.1L358.2,150.3z" class="st1"></path>
	<path d="M409.6,73.5l32.1-6.3c30.1-5.9,48.3,5.4,53.5,32.1l0.2,0.8c5.3,26.8-7.4,45.4-37.1,51.2l-32.1,6.3L409.6,73.5z
		 M453.4,131.1c13.1-2.6,17.3-10.1,14.4-24.9l-0.2-0.9c-3-15.4-9.9-19.9-22.9-17.4l-4.4,0.9l8.5,43.2L453.4,131.1z" class="st1"></path>
	<path d="M512.4,56.6l32.8,0.6c30.7,0.6,46,15.5,45.5,42.8l0,0.8c-0.5,27.4-16.9,42.8-47.2,42.2l-32.8-0.6L512.4,56.6z
		 M542.9,122.1c13.3,0.3,19.1-6.2,19.4-21.2l0-1c0.3-15.7-5.5-21.6-18.7-21.9l-4.4-0.1l-0.9,44L542.9,122.1z" class="st1"></path>
	<path d="M615.2,62.1l59.5,13.1l-4.5,20.4l-33.1-7.3l-2.6,11.8l26.3,5.8l-4.1,18.6l-26.3-5.8l-2.8,12.5l34.9,7.7
		l-4.5,20.4l-61.4-13.5L615.2,62.1z" class="st1"></path>
	<path d="M700.2,82.9l30,13.2c28.1,12.4,36.5,32.1,25.5,57l-0.3,0.8c-11,25-32.1,33-59.7,20.8l-30-13.2L700.2,82.9z
		 M703.1,155.1c12.2,5.4,20,1.6,26.1-12.1l0.4-0.9c6.3-14.4,3.3-22-8.8-27.3l-4.1-1.8L699,153.3L703.1,155.1z" class="st1"></path>
</g>
<g>
	<path d="M328.9,943.2l23.7,10.1c-1.7,5.2-1,10.3,7.2,13.7c5.9,2.5,9.9,1.1,11.5-2.8c1.8-4.2-0.4-6.7-8.4-11.5
		c-21.7-12.2-26.6-22.1-19.7-38.3c6.2-14.6,22.6-20.1,42.3-11.8c19.6,8.3,27.1,20.9,21.1,38.7l-23.2-9.8c1.5-5.1-0.1-9-5.4-11.3
		c-5.2-2.2-8.8-1-10.3,2.4c-1.6,3.8,0,6.5,8.2,11.3c19,10.5,27.9,20.3,20.4,37.9c-6.2,14.7-22.9,22-44.1,13
		C330.1,975.2,321.9,961.2,328.9,943.2z" class="st1"></path>
	<path d="M408.4,967.7l10.5-49.3l26.5,5.6l-10.3,48.2c-2.3,10.9-1.1,16.8,8.4,18.8c9.4,2,12.9-2.9,15.2-13.9L469,929
		l26.8,5.7l-10.4,49.1c-5.4,25.2-22.8,33.2-46.2,28.2C414.6,1006.8,403.3,991.6,408.4,967.7z" class="st1"></path>
	<path d="M499.1,979.4l0-1c-0.4-26.3,18.8-44.1,44.9-44.5c20.9-0.3,39.5,8.8,41.3,31.7l-26.9,0.4
		c-1.1-7.1-5.6-11-14-10.8c-10.8,0.2-17.3,8.7-17,23.2l0,1c0.2,12.6,4.6,22.7,18.5,22.5c10.8-0.2,14.8-5.5,15.3-11.2l-14.6,0.2
		l-0.3-17.9l41.2-0.7l0.2,11c0.3,21.4-13.4,38.6-42.2,39.1C515.7,1023,499.5,1005.1,499.1,979.4z" class="st1"></path>
	<path d="M604,930.4l34.4-7.2l43.8,78.5l-28.2,5.9l-6.8-13.2l-26.5,5.5l-0.8,14.8l-24.8,5.2L604,930.4z M622,980.9
		l16.6-3.5L624,948.7L622,980.9z" class="st1"></path>
	<path d="M664.6,916.8l32.2-13.9c21.7-9.4,36.7-5.5,44,11.3l0.2,0.4c4.7,10.9,1.9,19.5-4.4,26.4l31.9,24.4l-26.2,11.3
		l-26.3-20.7l-4,1.7l11.7,27l-24.9,10.8L664.6,916.8z M710.8,939.2c6.9-3,9-7.3,6.5-13l-0.2-0.4c-2.5-5.7-6.8-6.5-13.6-3.6l-5.9,2.6
		l7.3,17L710.8,939.2z" class="st1"></path>
</g>
<g>
	<path d="M271.3,533.4v-15.3c0-69.6,52.5-109.4,137.7-109.4s137.7,40.4,137.7,107.8v14.9c0,68.7-48.3,111.9-138.6,111.9
		S271.3,599.9,271.3,533.4z M465.9,533.4v-15.6c0-36.9-18.4-56.6-56.6-56.6c-38.5,0-56.6,19.4-56.6,56.6v15.3
		c0,37.2,18.4,56.3,57.5,56.3C449.7,589.4,465.9,569.6,465.9,533.4z" class="st1"></path>
	<path d="M566.7,635.5h73.1c2.9,12.1,14,19.7,42.6,19.7c33.1,0,45.8-14,45.8-35v-21c-11.1,16.5-35.6,28.9-69.9,28.9
		c-51.5,0-93.5-25.1-93.5-77.6V548c0-50.6,41.3-79.8,93.5-79.8c35.6,0,57.2,11.1,69.9,28.6V473h74.4v146.9
		c0,52.8-42.9,79.2-119.5,79.2C606.1,699.1,571.5,675.2,566.7,635.5z M730.1,550.9v-2.5c0-20.3-17.8-33.1-45.1-33.1
		c-28.3,0-44.5,12.4-44.5,33.4v2.5c0,20,17.5,33.4,44.8,33.4C712,584.6,730.1,571.2,730.1,550.9z" class="st1"></path>
</g>
</svg>
